<?xml version="1.0" encoding="UTF-8" standalone="no"?>
<!-- Created with Inkscape (http://www.inkscape.org/) -->

<svg
   xmlns:dc="http://purl.org/dc/elements/1.1/"
   xmlns:cc="http://creativecommons.org/ns#"
   xmlns:rdf="http://www.w3.org/1999/02/22-rdf-syntax-ns#"
   xmlns:svg="http://www.w3.org/2000/svg"
   xmlns="http://www.w3.org/2000/svg"
   xmlns:sodipodi="http://sodipodi.sourceforge.net/DTD/sodipodi-0.dtd"
   xmlns:inkscape="http://www.inkscape.org/namespaces/inkscape"
   width="744.09448819"
   height="1052.3622047"
   id="svg2"
   version="1.1"
   inkscape:version="0.48.5 r10040"
   sodipodi:docname="invader.svg"
   inkscape:export-filename="C:\wamp64\www\canvasBasics\svg\invader.png"
   inkscape:export-xdpi="90"
   inkscape:export-ydpi="90">
  <defs
     id="defs4" />
  <sodipodi:namedview
     id="base"
     pagecolor="#ffffff"
     bordercolor="#666666"
     borderopacity="1.0"
     inkscape:pageopacity="0.0"
     inkscape:pageshadow="2"
     inkscape:zoom="0.98994949"
     inkscape:cx="338.91033"
     inkscape:cy="415.84595"
     inkscape:document-units="px"
     inkscape:current-layer="layer1"
     showgrid="false"
     inkscape:window-width="1440"
     inkscape:window-height="837"
     inkscape:window-x="-8"
     inkscape:window-y="-8"
     inkscape:window-maximized="1" />
  <metadata
     id="metadata7">
    <rdf:RDF>
      <cc:Work
         rdf:about="">
        <dc:format>image/svg+xml</dc:format>
        <dc:type
           rdf:resource="http://purl.org/dc/dcmitype/StillImage" />
        <dc:title></dc:title>
      </cc:Work>
    </rdf:RDF>
  </metadata>
  <g
     inkscape:label="Layer 1"
     inkscape:groupmode="layer"
     id="layer1">
    <g
       id="g3804"
       transform="matrix(0.30544066,0,0,0.30544066,242.26697,472.98205)">
      <rect
         y="389.70212"
         x="220.21326"
         height="19.697975"
         width="106.57109"
         id="rect3784"
         style="fill:#595c54;fill-opacity:1;stroke:none" />
      <rect
         style="fill:#595c54;fill-opacity:1;stroke:none"
         id="rect3778"
         width="26.263966"
         height="28.789347"
         x="338.81732"
         y="387.68179" />
      <g
         id="g3780">
        <path
           sodipodi:type="arc"
           style="fill:#204a87;fill-opacity:1;stroke:none"
           id="path3767"
           sodipodi:cx="268.92856"
           sodipodi:cy="518.43359"
           sodipodi:rx="46.785713"
           sodipodi:ry="46.07143"
           d="m 315.71427,518.43359 c 0,25.44455 -20.94668,46.07143 -46.78571,46.07143 -25.83904,0 -46.78571,-20.62688 -46.78571,-46.07143 0,-25.44454 20.94667,-46.07143 46.78571,-46.07143 25.83903,0 46.78571,20.62689 46.78571,46.07143 z"
           transform="translate(3.5714286,-4.2857143)" />
        <rect
           style="fill:#2e3436;fill-opacity:1;stroke:none"
           id="rect3769"
           width="122.14286"
           height="81.428566"
           x="211.42856"
           y="395.2193" />
      </g>
      <rect
         y="387.68179"
         x="178.81731"
         height="28.789347"
         width="26.263966"
         id="rect3776"
         style="fill:#595c54;fill-opacity:1;stroke:none" />
      <path
         inkscape:connector-curvature="0"
         id="path3765"
         d="m 174.28124,409.4375 20.59375,121.25 55.84375,63.03125 0,-137.0625 43.5625,0 0,137.0625 55.84375,-63.03125 20.59375,-121.25 -76.4375,0 0,17.9375 -43.5625,0 0,-17.9375 -76.4375,0 z"
         style="fill:#babdb6;fill-opacity:1;stroke:none" />
      <path
         transform="matrix(0.69767441,0,0,0.69767441,87.389942,165.44678)"
         d="m 288.90362,531.37598 c 0,5.99733 -5.201,10.85914 -11.61675,10.85914 -6.41576,0 -11.61676,-4.86181 -11.61676,-10.85914 0,-5.99734 5.201,-10.85914 11.61676,-10.85914 6.41575,0 11.61675,4.8618 11.61675,10.85914 z"
         sodipodi:ry="10.859139"
         sodipodi:rx="11.616755"
         sodipodi:cy="531.37598"
         sodipodi:cx="277.28687"
         id="path3786"
         style="fill:#ffffff;fill-opacity:0.69680852;stroke:none"
         sodipodi:type="arc" />
    </g>
  </g>
</svg>
