<?xml version="1.0" encoding="UTF-8"?>
<svg version="1.1" viewBox="0 0 744.09 1052.4" xmlns="http://www.w3.org/2000/svg" xmlns:cc="http://creativecommons.org/ns#" xmlns:dc="http://purl.org/dc/elements/1.1/" xmlns:rdf="http://www.w3.org/1999/02/22-rdf-syntax-ns#">
<metadata>
<rdf:RDF>
<cc:Work rdf:about="">
<dc:format>image/svg+xml</dc:format>
<dc:type rdf:resource="http://purl.org/dc/dcmitype/StillImage"/>
<dc:title/>
</cc:Work>
</rdf:RDF>
</metadata>
<g transform="translate(26.264 22.223)">
<title>Rocket</title>
<g fill="#f57900" stroke="#000" stroke-linecap="round" stroke-linejoin="bevel" stroke-width="2.2329">
<path d="m253.31 804.67c-2.3931 4.8918-4.5341 9.6138-5.2742 15.004v71.057h11.281v-70.405c0.0508-6.2405-4.0477-11.444-6.0065-15.655z">
<title>rocketLeft2</title>
</path>
<path d="m237.23 814.67c-2.3931 4.8918-4.5341 9.6138-5.2742 15.004v71.057h11.281v-70.405c0.0508-6.2405-4.0477-11.444-6.0065-15.655z">
<title>rocketLeft1</title>
</path>
</g>
<g transform="matrix(-1 0 0 1 673.27 0)" fill="#f57900" stroke="#000" stroke-linecap="round" stroke-linejoin="bevel" stroke-width="2.2329">
<path d="m253.31 804.67c-2.3931 4.8918-4.5341 9.6138-5.2742 15.004v71.057h11.281v-70.405c0.0508-6.2405-4.0477-11.444-6.0065-15.655z">
<title>rocketRight2</title>
</path>
<path d="m237.23 814.67c-2.3931 4.8918-4.5341 9.6138-5.2742 15.004v71.057h11.281v-70.405c0.0508-6.2405-4.0477-11.444-6.0065-15.655z">
<title>rocketRight1</title>
</path>
</g>
<rect x="314.9" y="945.22" width="42.143" height="14.286" fill="#eeeeec" stroke="#000" stroke-linecap="round" stroke-linejoin="bevel" stroke-width="3">
<title>ignition</title>
</rect>
<g transform="matrix(1 0 0 .91617 .089286 79.57)" fill="#555753">
<g>
<title>ignitionDetail</title>
<rect x="346.61" y="949.24" width="6.2431" height="9.9038" fill="#555753" stroke="#000" stroke-linecap="round" stroke-linejoin="bevel" stroke-width="1.0069"/>
<rect x="337.3" y="949.51" width="6.2431" height="9.9038" fill="#555753" stroke="#000" stroke-linecap="round" stroke-linejoin="bevel" stroke-width="1.0069"/>
<rect x="327.88" y="949.42" width="6.2431" height="9.9038" fill="#555753" stroke="#000" stroke-linecap="round" stroke-linejoin="bevel" stroke-width="1.0069"/>
<rect x="318.49" y="949.33" width="6.2431" height="9.9038" fill="#555753" stroke="#000" stroke-linecap="round" stroke-linejoin="bevel" stroke-width="1.0069"/>
</g>
</g>
<path d="m336.44 760.22c-14.991 0-27.156 15.524-27.156 34.656 0 3.8863 0.51276 7.606 1.4375 11.094v0.1875l-124.25 71.719v23.969h124.25v46.938h51.438v-45.906h124.66v-24l-124.66-71.969v-1c0.91429-3.4701 1.4062-7.1679 1.4062-11.031 0-19.133-12.134-34.656-27.125-34.656z" fill="#eeeeec" stroke="#000" stroke-width="3">
<title>basePart</title>
</path>
<rect x="186.37" y="893.26" width="300.52" height="9.0914" fill="#f57900" stroke="#000" stroke-linecap="round" stroke-linejoin="bevel" stroke-width="3">
<title>basePartDetail</title>
</rect>
<path d="m316.08 840.24-100.55 110.76l7.4062 22.812 112.16-36.469 115.25 37.469 7.4062-22.781-99.031-110.03-21.654 63.322z" fill="#eeeeec" stroke="#000" stroke-linecap="round" stroke-linejoin="bevel" stroke-width="3">
<title>upperPart</title>
</path>
<g>
<title>commandCenter</title>
<path d="m315.17 840.74 21.213-69.195 23.234 71.721-22.223 66.165z" fill="#204a87" stroke="#000" stroke-linecap="round" stroke-linejoin="bevel" stroke-width="3"/>
<path d="m336.46 776.6-0.0309 3.2679 0.98392 123.53 0.055 1.2237 20.621-61.308z" fill="#2f6cc5"/>
</g>
<path d="m334.88 929.12-114.38 37.188 2.4375 7.5 112.16-36.469 115.25 37.469 2.1562-6.625-117.62-39.062z" fill="#f57900" stroke="#000" stroke-linecap="round" stroke-linejoin="bevel" stroke-width="3">
<title>upperPartDetail</title>
</path>
</g>
</svg>
